<?xml version="1.0" encoding="UTF-8" standalone="no"?>
<svg xmlns="http://www.w3.org/2000/svg" width="300" height="200" viewBox="0 0 300 200">
  <rect width="300" height="200" fill="#f0f0f0"/>
  <g fill="#cccccc">
    <path d="M150,70 C132,70 118,84 118,102 C118,120 132,134 150,134 C168,134 182,120 182,102 C182,84 168,70 150,70 Z M150,122 C138,122 130,114 130,102 C130,90 138,82 150,82 C162,82 170,90 170,102 C170,114 162,122 150,122 Z"/>
    <path d="M150,142 L98,180 L202,180 Z"/>
    <circle cx="170" cy="90" r="6"/>
  </g>
  <text x="150" y="160" font-family="Arial, sans-serif" font-size="12" text-anchor="middle" fill="#999999">Loading image...</text>
</svg>
